<?xml version="1.0" encoding="UTF-8"?><svg id="Layer_2" xmlns="http://www.w3.org/2000/svg" viewBox="0 0 1104.51 440.05"><defs><style>.cls-1{fill:#595a5c;}.cls-1,.cls-2{font-family:ArialMT, Arial;font-size:39.86px;}.cls-2{stroke:#231f20;stroke-miterlimit:2.61;stroke-width:.22px;}.cls-2,.cls-3{fill:#231f20;}.cls-4{fill:#f8b527;}</style></defs><g id="Layer_1-2"><g><g><polygon class="cls-4" points="147.57 297.58 147.58 80.5 168.4 80.5 248.17 243.43 329.21 80.5 348.1 80.5 348.11 297.58 323.57 297.58 323.58 140.24 247.84 297.59 172.12 140.24 172.12 297.58 147.57 297.58"/><polygon class="cls-4" points="115.63 103.12 23.89 103.12 23.89 167.07 109.18 167.07 109.18 189.69 23.89 189.69 23.89 273.36 115.63 273.36 115.63 295.97 0 295.97 0 80.51 115.63 80.51 115.63 103.12"/><polygon class="cls-4" points="967.25 3.75 975.08 28.97 1002.99 29.58 981.36 44.87 989.16 71.3 968.16 55.39 945.35 71.3 953.74 46.38 931.83 29.58 958.24 29.87 967.25 3.75"/><path class="cls-4" d="M427.28,80.51c21.65,0,39.74,2.58,54.27,15.18,15.83,13.57,19.7,32.62,19.7,46.19,0,30.36-19.06,60.4-68.15,60.4h-21v93.68h-23.91V80.51h39.08Zm-15.17,99.17h19.7c28.43,0,45.55-14.21,45.55-39.09,0-34.24-31.99-37.47-47.48-37.47h-17.77v76.56Z"/><path class="cls-4" d="M706.4,80.51c14.54,0,36.17,.97,52.33,11.95,12.59,8.4,23.58,24.87,23.58,47.81,0,32.95-21.64,57.18-54.27,59.44l68.49,96.25h-29.07l-65.57-94.33h-6.13v94.33h-23.91V80.51h34.56Zm-10.65,99.82h15.18c29.72,0,47.48-14.21,47.48-39.41,0-11.96-3.55-23.9-17.11-31.66-9.69-5.49-20.67-6.13-31.01-6.13h-14.53v77.2Z"/><rect class="cls-4" x="824.32" y="80.52" width="23.91" height="215.45"/><polygon class="cls-4" points="967.43 126.38 895.39 295.97 868.9 295.97 968.08 70.17 1064.66 295.97 1038.17 295.97 967.43 126.38"/><rect class="cls-4" x="525.82" y="80.52" width="111.76" height="25.12"/><rect class="cls-4" x="525.82" y="270.83" width="111.76" height="25.14"/><rect class="cls-4" x="525.82" y="175.68" width="111.76" height="25.11"/><text class="cls-1" transform="translate(1046.84 34.32)"><tspan x="0" y="0">T</tspan></text><text class="cls-1" transform="translate(1071.2 34.32)"><tspan x="0" y="0">M</tspan></text><g><text class="cls-2" transform="translate(1046.84 34.32)"><tspan x="0" y="0">T</tspan></text><text class="cls-2" transform="translate(1071.2 34.32)"><tspan x="0" y="0">M</tspan></text></g></g><g><path class="cls-3" d="M39.23,366.11h6.45v31.93h43.58v-31.93h6.45v72.8h-6.45v-34.74H45.68v34.74h-6.45v-72.8Z"/><path class="cls-3" d="M162.16,413.84c0,3.68-.66,7.09-1.98,10.24-1.32,3.16-3.14,5.93-5.46,8.32-2.32,2.39-5.08,4.26-8.27,5.62-3.19,1.35-6.62,2.03-10.3,2.03s-7.11-.68-10.3-2.03c-3.19-1.35-5.95-3.22-8.27-5.62-2.32-2.39-4.14-5.16-5.46-8.32-1.32-3.15-1.98-6.57-1.98-10.24s.66-7,1.98-10.19c1.32-3.19,3.14-5.96,5.46-8.32,2.32-2.36,5.08-4.21,8.27-5.56,3.19-1.35,6.62-2.03,10.3-2.03s7.11,.68,10.3,2.03c3.19,1.35,5.94,3.21,8.27,5.56,2.32,2.36,4.14,5.13,5.46,8.32,1.32,3.19,1.98,6.59,1.98,10.19Zm-6.34,0c0-2.77-.5-5.41-1.51-7.9-1.01-2.5-2.39-4.66-4.16-6.5-1.77-1.84-3.85-3.29-6.24-4.37-2.39-1.07-4.98-1.61-7.75-1.61s-5.36,.54-7.75,1.61c-2.39,1.08-4.47,2.53-6.24,4.37-1.77,1.84-3.16,4-4.16,6.5-1.01,2.5-1.51,5.13-1.51,7.9s.5,5.51,1.51,8.01c1,2.5,2.39,4.66,4.16,6.5,1.77,1.84,3.85,3.29,6.24,4.37,2.39,1.08,4.97,1.61,7.75,1.61s5.36-.54,7.75-1.61c2.39-1.07,4.47-2.53,6.24-4.37,1.77-1.84,3.15-4,4.16-6.5,1-2.5,1.51-5.17,1.51-8.01Z"/><path class="cls-3" d="M182.75,373.49v15.39h14.46v5.62h-14.46v30.16c0,6.38,2.91,9.57,8.74,9.57,1.04,0,2.06-.14,3.07-.42,1-.28,1.92-.66,2.76-1.14v5.93c-.76,.35-1.72,.68-2.86,.99-1.14,.31-2.48,.47-4,.47-4.37,0-7.78-1.23-10.24-3.69-2.46-2.46-3.69-6.08-3.69-10.87v-30.99h-8.01v-5.62h8.01v-15.39h6.24Z"/><path class="cls-3" d="M251.81,426.95c-2.01,3.95-4.89,7.12-8.63,9.52-3.74,2.39-8.11,3.59-13.1,3.59-3.68,0-7.06-.64-10.14-1.92s-5.75-3.08-8.01-5.41c-2.25-2.32-4-5.1-5.25-8.32-1.25-3.22-1.87-6.74-1.87-10.56s.62-7.21,1.87-10.4c1.25-3.19,2.98-5.94,5.2-8.27,2.22-2.32,4.85-4.14,7.9-5.46,3.05-1.32,6.34-1.98,9.88-1.98s6.78,.66,9.72,1.98c2.95,1.32,5.48,3.14,7.59,5.46,2.11,2.32,3.78,5.06,4.99,8.22,1.21,3.16,1.82,6.54,1.82,10.14,0,.35-.02,.64-.05,.88-.04,.24-.05,.47-.05,.68v.62h-42.54v.1c.07,2.7,.62,5.18,1.66,7.44,1.04,2.25,2.41,4.2,4.11,5.82,1.7,1.63,3.69,2.91,5.98,3.85,2.29,.94,4.71,1.4,7.28,1.4,4.02,0,7.33-.9,9.93-2.7,2.6-1.8,4.77-4.23,6.5-7.28l5.2,2.6Zm-22.26-33.7c-2.5,0-4.82,.47-6.97,1.4-2.15,.94-4.04,2.2-5.67,3.8-1.63,1.6-2.95,3.42-3.95,5.46-1.01,2.05-1.58,4.21-1.72,6.5h36.19c-.21-2.43-.8-4.7-1.77-6.81-.97-2.11-2.24-3.93-3.8-5.46-1.56-1.52-3.4-2.72-5.51-3.59-2.12-.87-4.39-1.3-6.81-1.3Z"/><path class="cls-3" d="M272.92,366.11v72.8h-6.24v-72.8h6.24Z"/><path class="cls-3" d="M369.95,438.91l-13.1-12.79c-3.74,4.44-7.73,7.87-11.96,10.3-4.23,2.43-8.74,3.64-13.52,3.64-2.84,0-5.46-.45-7.85-1.35-2.39-.9-4.46-2.15-6.19-3.74-1.73-1.59-3.07-3.52-4-5.77-.94-2.25-1.4-4.7-1.4-7.33,0-4.78,1.46-9.01,4.37-12.69,2.91-3.67,7.04-7.14,12.38-10.4-3.33-3.33-5.72-6.36-7.18-9.1-1.46-2.74-2.18-5.56-2.18-8.48,0-2.22,.43-4.32,1.3-6.29,.87-1.98,2.04-3.71,3.54-5.2,1.49-1.49,3.28-2.67,5.36-3.54,2.08-.87,4.33-1.3,6.76-1.3s4.56,.42,6.6,1.25c2.04,.83,3.81,1.96,5.3,3.38,1.49,1.42,2.67,3.1,3.54,5.04,.87,1.94,1.3,3.99,1.3,6.14,0,3.74-1.23,7.11-3.69,10.09-2.46,2.98-6.02,6-10.66,9.05l17.68,17.37,12.69-15.29,4.78,3.74-13,15.7,18.1,17.58h-8.94Zm-37.75-4.78c3.54,0,6.88-1,10.04-3.02,3.15-2.01,6.5-5.1,10.04-9.26l-19.34-18.93c-1.66,.97-3.36,2.08-5.1,3.33-1.73,1.25-3.31,2.64-4.73,4.16-1.42,1.53-2.57,3.19-3.43,4.99-.87,1.8-1.3,3.78-1.3,5.93,0,1.87,.35,3.59,1.04,5.15,.69,1.56,1.66,2.91,2.91,4.06,1.25,1.14,2.7,2.03,4.37,2.65s3.5,.94,5.51,.94Zm-6.55-53.04c0,2.22,.69,4.47,2.08,6.76,1.39,2.29,3.57,4.92,6.55,7.9,3.88-2.29,6.93-4.66,9.15-7.12,2.22-2.46,3.33-5.08,3.33-7.85,0-1.32-.28-2.6-.83-3.85-.56-1.25-1.3-2.34-2.24-3.28s-2.06-1.68-3.38-2.24c-1.32-.55-2.7-.83-4.16-.83s-2.83,.28-4.11,.83c-1.28,.56-2.39,1.32-3.33,2.29-.94,.97-1.68,2.1-2.24,3.38-.56,1.28-.83,2.62-.83,4Z"/><path class="cls-3" d="M415.09,366.11h21.94c3.19,0,6.12,.43,8.79,1.3,2.67,.87,4.96,2.12,6.86,3.74,1.91,1.63,3.38,3.59,4.42,5.88s1.56,4.89,1.56,7.8c0,3.95-.97,7.21-2.91,9.78-1.94,2.57-4.23,4.44-6.86,5.62,4.16,1.18,7.59,3.31,10.3,6.4,2.7,3.09,4.06,7.09,4.06,12.01,0,3.12-.57,5.93-1.72,8.42-1.14,2.5-2.77,4.63-4.89,6.4-2.12,1.77-4.66,3.12-7.64,4.06-2.98,.94-6.28,1.4-9.88,1.4h-24.02v-72.8Zm22.67,31.93c4.3,0,7.8-1.18,10.5-3.54,2.7-2.36,4.06-5.51,4.06-9.46s-1.42-7.3-4.26-9.62c-2.84-2.32-6.55-3.48-11.13-3.48h-15.39v26.1h16.22Zm1.25,35.05c5.34,0,9.62-1.3,12.84-3.9,3.22-2.6,4.84-6.19,4.84-10.76,0-2.22-.45-4.25-1.35-6.08-.9-1.84-2.13-3.4-3.69-4.68-1.56-1.28-3.45-2.27-5.67-2.96-2.22-.69-4.61-1.04-7.18-1.04h-17.26v29.43h17.47Z"/><path class="cls-3" d="M520.33,438.91h-6.24v-8.63c-1.53,2.77-3.78,5.1-6.76,6.97-2.98,1.87-6.59,2.81-10.82,2.81-3.12,0-5.95-.52-8.48-1.56-2.53-1.04-4.68-2.51-6.45-4.42-1.77-1.91-3.12-4.23-4.06-6.97-.94-2.74-1.4-5.77-1.4-9.1v-29.12h6.24v28.39c0,5.2,1.35,9.34,4.06,12.43,2.7,3.09,6.48,4.63,11.34,4.63,2.36,0,4.54-.47,6.55-1.4,2.01-.94,3.74-2.24,5.2-3.9s2.58-3.6,3.38-5.82c.8-2.22,1.2-4.61,1.2-7.18v-27.14h6.24v50.02Z"/><path class="cls-3" d="M538.32,424.45c.83,2.91,2.25,5.32,4.26,7.23,2.01,1.91,4.61,2.86,7.8,2.86,1.32,0,2.6-.19,3.85-.57,1.25-.38,2.34-.94,3.28-1.66,.94-.73,1.68-1.65,2.24-2.76,.55-1.11,.83-2.36,.83-3.74,0-2.22-.71-3.97-2.13-5.25-1.42-1.28-3.45-2.41-6.08-3.38l-5.93-2.08c-7.97-2.77-11.96-7.45-11.96-14.04,0-2.01,.4-3.83,1.2-5.46,.8-1.63,1.87-3.03,3.22-4.21,1.35-1.18,2.96-2.08,4.84-2.7s3.88-.94,6.03-.94c3.95,.07,7.35,1.21,10.19,3.43,2.84,2.22,4.78,5.06,5.82,8.53l-5.51,2.18c-.76-2.5-2.05-4.58-3.85-6.24-1.8-1.66-4.06-2.5-6.76-2.5-2.5,0-4.63,.68-6.4,2.03-1.77,1.35-2.65,3.17-2.65,5.46,0,4.09,2.63,7.04,7.9,8.84l5.72,1.98c4.16,1.46,7.3,3.29,9.41,5.51,2.11,2.22,3.17,5.03,3.17,8.42,0,2.29-.45,4.35-1.35,6.19-.9,1.84-2.12,3.38-3.64,4.63-1.53,1.25-3.29,2.2-5.3,2.86-2.01,.66-4.09,.99-6.24,.99-4.72-.07-8.58-1.35-11.6-3.85-3.02-2.5-5.01-5.72-5.98-9.67l5.62-2.08Z"/><path class="cls-3" d="M578.26,373.49c0-1.18,.43-2.2,1.3-3.07s1.89-1.3,3.07-1.3,2.2,.43,3.07,1.3c.87,.87,1.3,1.89,1.3,3.07s-.43,2.2-1.3,3.07-1.89,1.3-3.07,1.3-2.2-.43-3.07-1.3c-.87-.87-1.3-1.89-1.3-3.07Zm7.49,15.39v50.02h-6.24v-50.02h6.24Z"/><path class="cls-3" d="M602.81,388.88h6.24v8.63c1.52-2.77,3.8-5.1,6.81-6.97s6.64-2.81,10.87-2.81c3.19,0,6.05,.52,8.58,1.56,2.53,1.04,4.68,2.51,6.45,4.42,1.77,1.91,3.14,4.23,4.11,6.97,.97,2.74,1.46,5.77,1.46,9.1v29.12h-6.24v-28.39c0-5.2-1.37-9.34-4.11-12.43-2.74-3.08-6.57-4.63-11.49-4.63-2.43,0-4.65,.47-6.66,1.4-2.01,.94-3.74,2.24-5.2,3.9-1.46,1.66-2.58,3.61-3.38,5.82-.8,2.22-1.2,4.61-1.2,7.18v27.14h-6.24v-50.02Z"/><path class="cls-3" d="M707.12,426.95c-2.01,3.95-4.89,7.12-8.63,9.52-3.74,2.39-8.11,3.59-13.1,3.59-3.68,0-7.06-.64-10.14-1.92s-5.75-3.08-8.01-5.41c-2.25-2.32-4-5.1-5.25-8.32-1.25-3.22-1.87-6.74-1.87-10.56s.62-7.21,1.87-10.4c1.25-3.19,2.98-5.94,5.2-8.27,2.22-2.32,4.85-4.14,7.9-5.46,3.05-1.32,6.34-1.98,9.88-1.98s6.78,.66,9.72,1.98c2.95,1.32,5.48,3.14,7.59,5.46,2.11,2.32,3.78,5.06,4.99,8.22,1.21,3.16,1.82,6.54,1.82,10.14,0,.35-.02,.64-.05,.88-.04,.24-.05,.47-.05,.68v.62h-42.54v.1c.07,2.7,.62,5.18,1.66,7.44,1.04,2.25,2.41,4.2,4.11,5.82,1.7,1.63,3.69,2.91,5.98,3.85,2.29,.94,4.71,1.4,7.28,1.4,4.02,0,7.33-.9,9.93-2.7,2.6-1.8,4.77-4.23,6.5-7.28l5.2,2.6Zm-22.26-33.7c-2.5,0-4.82,.47-6.97,1.4-2.15,.94-4.04,2.2-5.67,3.8-1.63,1.6-2.95,3.42-3.95,5.46-1.01,2.05-1.58,4.21-1.72,6.5h36.19c-.21-2.43-.8-4.7-1.77-6.81-.97-2.11-2.24-3.93-3.8-5.46-1.56-1.52-3.4-2.72-5.51-3.59-2.12-.87-4.39-1.3-6.81-1.3Z"/><path class="cls-3" d="M723.44,424.45c.83,2.91,2.25,5.32,4.26,7.23,2.01,1.91,4.61,2.86,7.8,2.86,1.32,0,2.6-.19,3.85-.57,1.25-.38,2.34-.94,3.28-1.66,.94-.73,1.68-1.65,2.24-2.76,.55-1.11,.83-2.36,.83-3.74,0-2.22-.71-3.97-2.13-5.25-1.42-1.28-3.45-2.41-6.08-3.38l-5.93-2.08c-7.97-2.77-11.96-7.45-11.96-14.04,0-2.01,.4-3.83,1.2-5.46,.8-1.63,1.87-3.03,3.22-4.21,1.35-1.18,2.96-2.08,4.84-2.7s3.88-.94,6.03-.94c3.95,.07,7.35,1.21,10.19,3.43,2.84,2.22,4.78,5.06,5.82,8.53l-5.51,2.18c-.76-2.5-2.05-4.58-3.85-6.24-1.8-1.66-4.06-2.5-6.76-2.5-2.5,0-4.63,.68-6.4,2.03-1.77,1.35-2.65,3.17-2.65,5.46,0,4.09,2.63,7.04,7.9,8.84l5.72,1.98c4.16,1.46,7.3,3.29,9.41,5.51,2.11,2.22,3.17,5.03,3.17,8.42,0,2.29-.45,4.35-1.35,6.19-.9,1.84-2.12,3.38-3.64,4.63-1.53,1.25-3.29,2.2-5.3,2.86-2.01,.66-4.09,.99-6.24,.99-4.72-.07-8.58-1.35-11.6-3.85-3.02-2.5-5.01-5.72-5.98-9.67l5.62-2.08Z"/><path class="cls-3" d="M766.08,424.45c.83,2.91,2.25,5.32,4.26,7.23,2.01,1.91,4.61,2.86,7.8,2.86,1.32,0,2.6-.19,3.85-.57,1.25-.38,2.34-.94,3.28-1.66,.94-.73,1.68-1.65,2.24-2.76,.55-1.11,.83-2.36,.83-3.74,0-2.22-.71-3.97-2.13-5.25-1.42-1.28-3.45-2.41-6.08-3.38l-5.93-2.08c-7.97-2.77-11.96-7.45-11.96-14.04,0-2.01,.4-3.83,1.2-5.46,.8-1.63,1.87-3.03,3.22-4.21,1.35-1.18,2.96-2.08,4.84-2.7s3.88-.94,6.03-.94c3.95,.07,7.35,1.21,10.19,3.43,2.84,2.22,4.78,5.06,5.82,8.53l-5.51,2.18c-.76-2.5-2.05-4.58-3.85-6.24-1.8-1.66-4.06-2.5-6.76-2.5-2.5,0-4.63,.68-6.4,2.03-1.77,1.35-2.65,3.17-2.65,5.46,0,4.09,2.63,7.04,7.9,8.84l5.72,1.98c4.16,1.46,7.3,3.29,9.41,5.51,2.11,2.22,3.17,5.03,3.17,8.42,0,2.29-.45,4.35-1.35,6.19-.9,1.84-2.12,3.38-3.64,4.63-1.53,1.25-3.29,2.2-5.3,2.86-2.01,.66-4.09,.99-6.24,.99-4.72-.07-8.58-1.35-11.6-3.85-3.02-2.5-5.01-5.72-5.98-9.67l5.62-2.08Z"/><path class="cls-3" d="M855,366.11c3.4,0,6.52,.45,9.36,1.35,2.84,.9,5.29,2.22,7.33,3.95,2.04,1.73,3.64,3.85,4.78,6.34,1.14,2.5,1.72,5.34,1.72,8.53s-.57,6.14-1.72,8.63c-1.14,2.5-2.74,4.59-4.78,6.29-2.05,1.7-4.49,3-7.33,3.9-2.84,.9-5.96,1.35-9.36,1.35h-14.25v32.45h-6.45v-72.8h20.7Zm-14.25,34.32h14.25c4.99,0,9.01-1.25,12.06-3.74,3.05-2.5,4.58-5.96,4.58-10.4s-1.53-7.99-4.58-10.45c-3.05-2.46-7.07-3.69-12.06-3.69h-14.25v28.29Z"/><path class="cls-3" d="M935.08,388.88v50.02h-6.14v-9.78c-.9,1.66-2.06,3.16-3.48,4.47-1.42,1.32-3,2.46-4.73,3.43-1.73,.97-3.59,1.72-5.56,2.24-1.98,.52-4,.78-6.08,.78-3.61,0-6.95-.68-10.04-2.03-3.09-1.35-5.77-3.21-8.06-5.56-2.29-2.36-4.09-5.13-5.41-8.32-1.32-3.19-1.98-6.62-1.98-10.3s.66-7.11,1.98-10.3c1.32-3.19,3.12-5.94,5.41-8.27,2.29-2.32,4.97-4.16,8.06-5.51,3.08-1.35,6.43-2.03,10.04-2.03,4.23,0,8.15,.97,11.75,2.91,3.6,1.94,6.31,4.54,8.11,7.8v-9.57h6.14Zm-25.58,45.45c2.77,0,5.37-.54,7.8-1.61,2.43-1.07,4.54-2.53,6.34-4.37,1.8-1.84,3.21-4,4.21-6.5,1-2.5,1.51-5.17,1.51-8.01s-.5-5.41-1.51-7.9c-1.01-2.5-2.41-4.66-4.21-6.5-1.8-1.84-3.92-3.29-6.34-4.37-2.43-1.07-5.03-1.61-7.8-1.61s-5.25,.52-7.64,1.56c-2.39,1.04-4.47,2.48-6.24,4.32-1.77,1.84-3.16,4-4.16,6.5-1.01,2.5-1.51,5.17-1.51,8.01s.5,5.62,1.51,8.11c1,2.5,2.39,4.66,4.16,6.5,1.77,1.84,3.85,3.28,6.24,4.32,2.39,1.04,4.94,1.56,7.64,1.56Z"/><path class="cls-3" d="M976.99,394.39h-.62c-.21,0-.42-.02-.62-.05-.21-.03-.49-.05-.83-.05-2.43,0-4.66,.5-6.71,1.51-2.05,1.01-3.8,2.39-5.25,4.16-1.46,1.77-2.58,3.88-3.38,6.34-.8,2.46-1.2,5.15-1.2,8.06v24.54h-6.24v-50.02h6.14v10.4c.55-1.52,1.39-2.96,2.5-4.32,1.11-1.35,2.43-2.55,3.95-3.59,1.52-1.04,3.17-1.85,4.94-2.44,1.77-.59,3.59-.88,5.46-.88,.28,0,.54,.02,.78,.05,.24,.04,.43,.05,.57,.05h.52v6.24Z"/><path class="cls-3" d="M994.25,410.72l23.92-21.84h8.01l-23.19,21.22,25.58,28.81h-7.9l-22.15-24.96-4.26,3.95v21.01h-6.24v-72.8h6.24v44.62Z"/></g></g></g></svg>